<svg width="40" height="40" viewBox="0 0 40 40" fill="none" xmlns="http://www.w3.org/2000/svg">
<g clip-path="url(#clip0)">
<path d="M27.6785 23.736C32.48 16.9558 30.8741 7.56713 24.0939 2.76671C17.3137 -2.03372 7.92504 -0.428987 3.12462 6.3524C-1.67581 13.1326 -0.0710768 22.5201 6.71031 27.3205C11.5497 30.7468 17.948 31.0106 23.0524 27.9962L34.1433 39.0205C35.3408 40.2811 37.3332 40.3316 38.5938 39.1341C39.8544 37.9377 39.9049 35.9452 38.7085 34.6846C38.6707 34.6445 38.634 34.6078 38.5938 34.5699L27.6785 23.736ZM15.3924 24.7638C10.0345 24.7649 5.69058 20.4245 5.68713 15.0666C5.68599 9.70868 10.0264 5.36478 15.3855 5.36249C20.7365 5.3602 25.0781 9.69377 25.0884 15.0448C25.0976 20.4038 20.7594 24.7546 15.3992 24.7638C15.3969 24.7638 15.3958 24.7638 15.3924 24.7638Z" fill="white"/>
</g>
<defs>
<clipPath id="clip0">
<rect width="40" height="40" fill="white"/>
</clipPath>
</defs>
</svg>
