<svg width="14" height="14" viewBox="0 0 14 14" fill="none" xmlns="http://www.w3.org/2000/svg">
<path d="M11.9058 7.52801C11.012 8.19834 9.92089 8.66373 8.73335 8.89334C8.61342 9.74277 7.88203 10.3984 7 10.3984C6.11797 10.3984 5.38658 9.74277 5.26665 8.89334C4.07911 8.66373 2.98799 8.19834 2.09418 7.52801C0.743723 6.51517 0 5.1575 0 3.70508V11.1562C0 12.2701 0.906199 13.1763 2.02002 13.1763H11.98C13.0938 13.1763 14 12.2701 14 11.1562V3.70508C14 5.1575 13.2563 6.51517 11.9058 7.52801Z" fill="#623F99"/>
<path d="M5.24904 8.05172V7.30669C5.24904 7.08017 5.43268 6.89653 5.6592 6.89653H8.3408C8.56732 6.89653 8.75096 7.08017 8.75096 7.30669V8.05172C11.3083 7.49662 13.1797 5.75827 13.1797 3.70508V3.29492H9.88135V2.47986C9.88135 1.56666 9.13839 0.82373 8.22522 0.82373H5.77481C4.86164 0.82373 4.11868 1.56666 4.11868 2.47986V3.29492H0.820312V3.70508C0.820312 5.75827 2.69166 7.49662 5.24904 8.05172ZM4.93896 2.47986C4.93896 2.01898 5.31393 1.64404 5.77478 1.64404H8.22519C8.68604 1.64404 9.06101 2.01898 9.06101 2.47986V3.29492H4.93894V2.47986H4.93896Z" fill="#623F99"/>
<path d="M7.93062 7.7168H6.06934V8.64744C6.06934 9.1606 6.48685 9.57809 6.99998 9.57809C7.51311 9.57809 7.93062 9.1606 7.93062 8.64744V7.7168Z" fill="#623F99"/>
</svg>
