<svg width="16" height="16" viewBox="0 0 16 16" fill="none" xmlns="http://www.w3.org/2000/svg">
<g clip-path="url(#clip0)">
<path d="M8.33749 7.67761C8.33487 7.67486 8.33412 7.67121 8.33143 7.66852L5.65631 4.99336V3.31246C5.65631 3.18792 5.60687 3.06892 5.51899 2.98102L2.70649 0.137299C2.57284 0.00367393 2.37096 -0.0370761 2.19562 0.0357052C2.02031 0.108018 1.90631 0.279236 1.90631 0.468736V1.87499H0.468807C0.279338 1.87496 0.10812 1.98892 0.035807 2.16427C-0.0369742 2.33958 0.00330703 2.54102 0.137432 2.67514L2.98118 5.51886C3.06909 5.60677 3.18809 5.65621 3.31259 5.65621H4.99349L7.66862 8.33133C7.67131 8.33402 7.67496 8.33477 7.67771 8.33739C7.86021 8.51158 8.13743 8.51389 8.32237 8.33739C8.51712 8.15152 8.51274 7.86121 8.33749 7.67761Z" fill="#623F99"/>
<path d="M7.99994 0.00012207C6.80053 0.00012207 5.6665 0.305278 4.64531 0.781935L6.08325 2.21987C6.68675 2.01918 7.32997 1.90637 7.99997 1.90637C11.3599 1.90634 14.0937 4.64009 14.0937 8.00006C14.0937 11.36 11.3599 14.0938 7.99994 14.0938C4.63994 14.0938 1.90622 11.3601 1.90622 8.00006C1.90622 7.33006 2.01906 6.68684 2.21972 6.08334L0.781781 4.6454C0.305187 5.66662 0 6.80065 0 8.00006C0 12.3941 3.60591 16 7.99994 16C12.394 16 15.9999 12.3941 15.9999 8.00006C15.9999 3.60603 12.394 0.00012207 7.99994 0.00012207Z" fill="#623F99"/>
<path d="M7.99997 3.78125C7.5045 3.78125 7.03575 3.88281 6.59372 4.04041V4.60522L7.67737 5.68887C7.78381 5.674 7.8895 5.65625 7.99997 5.65625C9.29225 5.65625 10.3437 6.70772 10.3437 8C10.3437 9.29228 9.29225 10.3438 7.99997 10.3438C6.70769 10.3438 5.65622 9.29228 5.65622 8C5.65622 7.8895 5.67397 7.78381 5.68884 7.67741L4.60522 6.59372H4.04041C3.88281 7.03575 3.78125 7.5045 3.78125 7.99997C3.78125 10.3263 5.67366 12.2187 7.99997 12.2187C10.3263 12.2187 12.2187 10.3263 12.2187 7.99997C12.2187 5.67362 10.3263 3.78125 7.99997 3.78125Z" fill="#623F99"/>
</g>
<defs>
<clipPath id="clip0">
<rect width="16" height="16" fill="white"/>
</clipPath>
</defs>
</svg>
